<?xml version="1.0" encoding="us-ascii" standalone="no"?><svg xmlns="http://www.w3.org/2000/svg" xmlns:xlink="http://www.w3.org/1999/xlink" contentStyleType="text/css" height="405px" preserveAspectRatio="none" style="width:1406px;height:405px;background:#FFFFFF;" version="1.1" viewBox="0 0 1406 405" width="1406px" zoomAndPan="magnify"><defs/><g><ellipse cx="689.5" cy="20" fill="#222222" rx="10" ry="10" style="stroke:#222222;stroke-width:1.0;"/><rect fill="#F1F1F1" height="35.9609" rx="12.5" ry="12.5" style="stroke:#181818;stroke-width:0.5;" width="57" x="661" y="50"/><text fill="#000000" font-family="sans-serif" font-size="12" lengthAdjust="spacing" textLength="37" x="671" y="72.9492">shuffle</text><rect fill="#F1F1F1" height="35.9609" rx="12.5" ry="12.5" style="stroke:#181818;stroke-width:0.5;" width="44" x="667.5" y="105.9609"/><text fill="#000000" font-family="sans-serif" font-size="12" lengthAdjust="spacing" textLength="24" x="677.5" y="128.9102">deal</text><polygon fill="#F1F1F1" points="59.5,205.9219,116.5,205.9219,128.5,217.9219,116.5,229.9219,59.5,229.9219,47.5,217.9219,59.5,205.9219" style="stroke:#181818;stroke-width:0.5;"/><text fill="#000000" font-family="sans-serif" font-size="11" lengthAdjust="spacing" textLength="57" x="59.5" y="222.4766">up to player</text><rect fill="#F1F1F1" height="35.9609" rx="12.5" ry="12.5" style="stroke:#181818;stroke-width:0.5;" width="154" x="11" y="249.9219"/><text fill="#000000" font-family="sans-serif" font-size="12" lengthAdjust="spacing" textLength="134" x="21" y="272.8711">stockToWasteMovement</text><polygon fill="#F1F1F1" points="230.5,205.9219,287.5,205.9219,299.5,217.9219,287.5,229.9219,230.5,229.9219,218.5,217.9219,230.5,205.9219" style="stroke:#181818;stroke-width:0.5;"/><text fill="#000000" font-family="sans-serif" font-size="11" lengthAdjust="spacing" textLength="57" x="230.5" y="222.4766">up to player</text><rect fill="#F1F1F1" height="35.9609" rx="12.5" ry="12.5" style="stroke:#181818;stroke-width:0.5;" width="168" x="175" y="249.9219"/><text fill="#000000" font-family="sans-serif" font-size="12" lengthAdjust="spacing" textLength="148" x="185" y="272.8711">wasteToTableauMovement</text><polygon fill="#F1F1F1" points="417,205.9219,474,205.9219,486,217.9219,474,229.9219,417,229.9219,405,217.9219,417,205.9219" style="stroke:#181818;stroke-width:0.5;"/><text fill="#000000" font-family="sans-serif" font-size="11" lengthAdjust="spacing" textLength="57" x="417" y="222.4766">up to player</text><rect fill="#F1F1F1" height="35.9609" rx="12.5" ry="12.5" style="stroke:#181818;stroke-width:0.5;" width="185" x="353" y="249.9219"/><text fill="#000000" font-family="sans-serif" font-size="12" lengthAdjust="spacing" textLength="165" x="363" y="272.8711">wasteToFoundationMovement</text><polygon fill="#F1F1F1" points="596,205.9219,653,205.9219,665,217.9219,653,229.9219,596,229.9219,584,217.9219,596,205.9219" style="stroke:#181818;stroke-width:0.5;"/><text fill="#000000" font-family="sans-serif" font-size="11" lengthAdjust="spacing" textLength="57" x="596" y="222.4766">up to player</text><rect fill="#F1F1F1" height="35.9609" rx="12.5" ry="12.5" style="stroke:#181818;stroke-width:0.5;" width="153" x="548" y="249.9219"/><text fill="#000000" font-family="sans-serif" font-size="12" lengthAdjust="spacing" textLength="133" x="558" y="272.8711">wasteToStockMovement</text><polygon fill="#F1F1F1" points="780.5,205.9219,837.5,205.9219,849.5,217.9219,837.5,229.9219,780.5,229.9219,768.5,217.9219,780.5,205.9219" style="stroke:#181818;stroke-width:0.5;"/><text fill="#000000" font-family="sans-serif" font-size="11" lengthAdjust="spacing" textLength="57" x="780.5" y="222.4766">up to player</text><rect fill="#F1F1F1" height="35.9609" rx="12.5" ry="12.5" style="stroke:#181818;stroke-width:0.5;" width="176" x="721" y="249.9219"/><text fill="#000000" font-family="sans-serif" font-size="12" lengthAdjust="spacing" textLength="156" x="731" y="272.8711">tableauToTableauMovement</text><polygon fill="#F1F1F1" points="975,205.9219,1032,205.9219,1044,217.9219,1032,229.9219,975,229.9219,963,217.9219,975,205.9219" style="stroke:#181818;stroke-width:0.5;"/><text fill="#000000" font-family="sans-serif" font-size="11" lengthAdjust="spacing" textLength="57" x="975" y="222.4766">up to player</text><rect fill="#F1F1F1" height="35.9609" rx="12.5" ry="12.5" style="stroke:#181818;stroke-width:0.5;" width="193" x="907" y="249.9219"/><text fill="#000000" font-family="sans-serif" font-size="12" lengthAdjust="spacing" textLength="173" x="917" y="272.8711">tableauToFoundationMovement</text><polygon fill="#F1F1F1" points="1178,205.9219,1235,205.9219,1247,217.9219,1235,229.9219,1178,229.9219,1166,217.9219,1178,205.9219" style="stroke:#181818;stroke-width:0.5;"/><text fill="#000000" font-family="sans-serif" font-size="11" lengthAdjust="spacing" textLength="57" x="1178" y="222.4766">up to player</text><rect fill="#F1F1F1" height="35.9609" rx="12.5" ry="12.5" style="stroke:#181818;stroke-width:0.5;" width="193" x="1110" y="249.9219"/><text fill="#000000" font-family="sans-serif" font-size="12" lengthAdjust="spacing" textLength="173" x="1120" y="272.8711">foundationToTableauMovement</text><rect fill="#F1F1F1" height="35.9609" rx="12.5" ry="12.5" style="stroke:#181818;stroke-width:0.5;" width="55" x="1313" y="252.9219"/><text fill="#000000" font-family="sans-serif" font-size="12" lengthAdjust="spacing" textLength="35" x="1323" y="275.8711">resign</text><polygon fill="#F1F1F1" points="689.5,161.9219,701.5,173.9219,689.5,185.9219,677.5,173.9219,689.5,161.9219" style="stroke:#181818;stroke-width:0.5;"/><polygon fill="#F1F1F1" points="597,328.8828,782,328.8828,794,340.8828,782,352.8828,597,352.8828,585,340.8828,597,328.8828" style="stroke:#181818;stroke-width:0.5;"/><text fill="#000000" font-family="sans-serif" font-size="11" lengthAdjust="spacing" textLength="185" x="597" y="345.4375">allCardsInFoundation || player resigned</text><text fill="#000000" font-family="sans-serif" font-size="11" lengthAdjust="spacing" textLength="24" x="794" y="338.1221">false</text><ellipse cx="689.5" cy="383.8828" fill="none" rx="11" ry="11" style="stroke:#222222;stroke-width:1.0;"/><ellipse cx="689.5" cy="383.8828" fill="#222222" rx="6" ry="6" style="stroke:#222222;stroke-width:1.0;"/><line style="stroke:#181818;stroke-width:1.0;" x1="689.5" x2="689.5" y1="30" y2="50"/><polygon fill="#181818" points="685.5,40,689.5,50,693.5,40,689.5,44" style="stroke:#181818;stroke-width:1.0;"/><line style="stroke:#181818;stroke-width:1.0;" x1="689.5" x2="689.5" y1="85.9609" y2="105.9609"/><polygon fill="#181818" points="685.5,95.9609,689.5,105.9609,693.5,95.9609,689.5,99.9609" style="stroke:#181818;stroke-width:1.0;"/><line style="stroke:#181818;stroke-width:1.0;" x1="88" x2="88" y1="229.9219" y2="249.9219"/><polygon fill="#181818" points="84,239.9219,88,249.9219,92,239.9219,88,243.9219" style="stroke:#181818;stroke-width:1.0;"/><line style="stroke:#181818;stroke-width:1.0;" x1="88" x2="88" y1="285.8828" y2="308.8828"/><polygon fill="#181818" points="84,298.8828,88,308.8828,92,298.8828,88,302.8828" style="stroke:#181818;stroke-width:1.0;"/><line style="stroke:#181818;stroke-width:1.0;" x1="259" x2="259" y1="229.9219" y2="249.9219"/><polygon fill="#181818" points="255,239.9219,259,249.9219,263,239.9219,259,243.9219" style="stroke:#181818;stroke-width:1.0;"/><line style="stroke:#181818;stroke-width:1.0;" x1="259" x2="259" y1="285.8828" y2="308.8828"/><polygon fill="#181818" points="255,298.8828,259,308.8828,263,298.8828,259,302.8828" style="stroke:#181818;stroke-width:1.0;"/><line style="stroke:#181818;stroke-width:1.0;" x1="445.5" x2="445.5" y1="229.9219" y2="249.9219"/><polygon fill="#181818" points="441.5,239.9219,445.5,249.9219,449.5,239.9219,445.5,243.9219" style="stroke:#181818;stroke-width:1.0;"/><line style="stroke:#181818;stroke-width:1.0;" x1="445.5" x2="445.5" y1="285.8828" y2="308.8828"/><polygon fill="#181818" points="441.5,298.8828,445.5,308.8828,449.5,298.8828,445.5,302.8828" style="stroke:#181818;stroke-width:1.0;"/><line style="stroke:#181818;stroke-width:1.0;" x1="624.5" x2="624.5" y1="229.9219" y2="249.9219"/><polygon fill="#181818" points="620.5,239.9219,624.5,249.9219,628.5,239.9219,624.5,243.9219" style="stroke:#181818;stroke-width:1.0;"/><line style="stroke:#181818;stroke-width:1.0;" x1="624.5" x2="624.5" y1="285.8828" y2="308.8828"/><polygon fill="#181818" points="620.5,298.8828,624.5,308.8828,628.5,298.8828,624.5,302.8828" style="stroke:#181818;stroke-width:1.0;"/><line style="stroke:#181818;stroke-width:1.0;" x1="809" x2="809" y1="229.9219" y2="249.9219"/><polygon fill="#181818" points="805,239.9219,809,249.9219,813,239.9219,809,243.9219" style="stroke:#181818;stroke-width:1.0;"/><line style="stroke:#181818;stroke-width:1.0;" x1="809" x2="809" y1="285.8828" y2="308.8828"/><polygon fill="#181818" points="805,298.8828,809,308.8828,813,298.8828,809,302.8828" style="stroke:#181818;stroke-width:1.0;"/><line style="stroke:#181818;stroke-width:1.0;" x1="1003.5" x2="1003.5" y1="229.9219" y2="249.9219"/><polygon fill="#181818" points="999.5,239.9219,1003.5,249.9219,1007.5,239.9219,1003.5,243.9219" style="stroke:#181818;stroke-width:1.0;"/><line style="stroke:#181818;stroke-width:1.0;" x1="1003.5" x2="1003.5" y1="285.8828" y2="308.8828"/><polygon fill="#181818" points="999.5,298.8828,1003.5,308.8828,1007.5,298.8828,1003.5,302.8828" style="stroke:#181818;stroke-width:1.0;"/><line style="stroke:#181818;stroke-width:1.0;" x1="1206.5" x2="1206.5" y1="229.9219" y2="249.9219"/><polygon fill="#181818" points="1202.5,239.9219,1206.5,249.9219,1210.5,239.9219,1206.5,243.9219" style="stroke:#181818;stroke-width:1.0;"/><line style="stroke:#181818;stroke-width:1.0;" x1="1206.5" x2="1206.5" y1="285.8828" y2="308.8828"/><polygon fill="#181818" points="1202.5,298.8828,1206.5,308.8828,1210.5,298.8828,1206.5,302.8828" style="stroke:#181818;stroke-width:1.0;"/><line style="stroke:#181818;stroke-width:1.0;" x1="128.5" x2="218.5" y1="217.9219" y2="217.9219"/><polygon fill="#181818" points="208.5,213.9219,218.5,217.9219,208.5,221.9219,212.5,217.9219" style="stroke:#181818;stroke-width:1.0;"/><line style="stroke:#181818;stroke-width:1.0;" x1="299.5" x2="405" y1="217.9219" y2="217.9219"/><polygon fill="#181818" points="395,213.9219,405,217.9219,395,221.9219,399,217.9219" style="stroke:#181818;stroke-width:1.0;"/><line style="stroke:#181818;stroke-width:1.0;" x1="486" x2="584" y1="217.9219" y2="217.9219"/><polygon fill="#181818" points="574,213.9219,584,217.9219,574,221.9219,578,217.9219" style="stroke:#181818;stroke-width:1.0;"/><line style="stroke:#181818;stroke-width:1.0;" x1="665" x2="768.5" y1="217.9219" y2="217.9219"/><polygon fill="#181818" points="758.5,213.9219,768.5,217.9219,758.5,221.9219,762.5,217.9219" style="stroke:#181818;stroke-width:1.0;"/><line style="stroke:#181818;stroke-width:1.0;" x1="849.5" x2="963" y1="217.9219" y2="217.9219"/><polygon fill="#181818" points="953,213.9219,963,217.9219,953,221.9219,957,217.9219" style="stroke:#181818;stroke-width:1.0;"/><line style="stroke:#181818;stroke-width:1.0;" x1="1044" x2="1166" y1="217.9219" y2="217.9219"/><polygon fill="#181818" points="1156,213.9219,1166,217.9219,1156,221.9219,1160,217.9219" style="stroke:#181818;stroke-width:1.0;"/><line style="stroke:#181818;stroke-width:1.0;" x1="689.5" x2="689.5" y1="185.9219" y2="190.9219"/><line style="stroke:#181818;stroke-width:1.0;" x1="689.5" x2="88" y1="190.9219" y2="190.9219"/><line style="stroke:#181818;stroke-width:1.0;" x1="88" x2="88" y1="190.9219" y2="205.9219"/><polygon fill="#181818" points="84,195.9219,88,205.9219,92,195.9219,88,199.9219" style="stroke:#181818;stroke-width:1.0;"/><line style="stroke:#181818;stroke-width:1.0;" x1="1247" x2="1340.5" y1="217.9219" y2="217.9219"/><line style="stroke:#181818;stroke-width:1.0;" x1="1340.5" x2="1340.5" y1="217.9219" y2="252.9219"/><polygon fill="#181818" points="1336.5,242.9219,1340.5,252.9219,1344.5,242.9219,1340.5,246.9219" style="stroke:#181818;stroke-width:1.0;"/><line style="stroke:#181818;stroke-width:1.0;" x1="1340.5" x2="1340.5" y1="288.8828" y2="308.8828"/><polygon fill="#181818" points="1336.5,298.8828,1340.5,308.8828,1344.5,298.8828,1340.5,302.8828" style="stroke:#181818;stroke-width:1.0;"/><line style="stroke:#181818;stroke-width:1.0;" x1="88" x2="1340.5" y1="308.8828" y2="308.8828"/><line style="stroke:#181818;stroke-width:1.0;" x1="794" x2="1380" y1="340.8828" y2="340.8828"/><polygon fill="#181818" points="1376,280.9023,1380,270.9023,1384,280.9023,1380,276.9023" style="stroke:#181818;stroke-width:1.0;"/><line style="stroke:#181818;stroke-width:1.0;" x1="1380" x2="1380" y1="173.9219" y2="340.8828"/><line style="stroke:#181818;stroke-width:1.0;" x1="1380" x2="701.5" y1="173.9219" y2="173.9219"/><polygon fill="#181818" points="711.5,169.9219,701.5,173.9219,711.5,177.9219,707.5,173.9219" style="stroke:#181818;stroke-width:1.0;"/><line style="stroke:#181818;stroke-width:1.0;" x1="689.5" x2="689.5" y1="308.8828" y2="328.8828"/><polygon fill="#181818" points="685.5,318.8828,689.5,328.8828,693.5,318.8828,689.5,322.8828" style="stroke:#181818;stroke-width:1.0;"/><line style="stroke:#181818;stroke-width:1.0;" x1="689.5" x2="689.5" y1="141.9219" y2="161.9219"/><polygon fill="#181818" points="685.5,151.9219,689.5,161.9219,693.5,151.9219,689.5,155.9219" style="stroke:#181818;stroke-width:1.0;"/><line style="stroke:#181818;stroke-width:1.0;" x1="689.5" x2="689.5" y1="352.8828" y2="372.8828"/><polygon fill="#181818" points="685.5,362.8828,689.5,372.8828,693.5,362.8828,689.5,366.8828" style="stroke:#181818;stroke-width:1.0;"/><!--SRC=[fPB12i8m44JlViKUsr-mHq7muCc2vzLiR71DIhAn2FruMoAndWfcJmcPUPc13O9UDZ3DDdHHQwOctHGXfwEddZ1fvZ4QgjY3EEWPN-Jh_98eugxtrfqn21tTanvafSaIua0hW65sjgx52nF64iJUHQjGZBCbbDDSw2-0f0fbNJAai8tEzfKylpPFmTpiGc6LqOkrWA4pJ50Xymwz2WVxpGdZ-Ca22KEg1XEWqZZzKs-cLUdV]--></g></svg>