<?xml version="1.0" encoding="us-ascii" standalone="no"?><svg xmlns="http://www.w3.org/2000/svg" xmlns:xlink="http://www.w3.org/1999/xlink" contentStyleType="text/css" height="1486px" preserveAspectRatio="none" style="width:1326px;height:1486px;background:#FFFFFF;" version="1.1" viewBox="0 0 1326 1486" width="1326px" zoomAndPan="magnify"><defs/><g><ellipse cx="692.4437" cy="80" fill="#222222" rx="10" ry="10" style="stroke:#222222;stroke-width:1.0;"/><g id="IN_DECK"><rect fill="#F1F1F1" height="50" rx="12.5" ry="12.5" style="stroke:#181818;stroke-width:0.5;" width="78" x="653.4437" y="264"/><line style="stroke:#181818;stroke-width:0.5;" x1="653.4437" x2="731.4437" y1="292.6211" y2="292.6211"/><text fill="#000000" font-family="sans-serif" font-size="14" lengthAdjust="spacing" textLength="58" x="663.4437" y="284.1074">IN_DECK</text></g><g id="elem_dealChoice"><polygon fill="#F1F1F1" points="692.4437,442,704.4437,454,692.4437,466,680.4437,454,692.4437,442" style="stroke:#181818;stroke-width:0.5;"/></g><g id="IN_TABLEAU"><rect fill="#F1F1F1" height="50" rx="12.5" ry="12.5" style="stroke:#181818;stroke-width:0.5;" width="102" x="460.4437" y="1045"/><line style="stroke:#181818;stroke-width:0.5;" x1="460.4437" x2="562.4437" y1="1073.6211" y2="1073.6211"/><text fill="#000000" font-family="sans-serif" font-size="14" lengthAdjust="spacing" textLength="82" x="470.4437" y="1065.1074">IN_TABLEAU</text></g><g id="IN_STOCK"><rect fill="#F1F1F1" height="50" rx="12.5" ry="12.5" style="stroke:#181818;stroke-width:0.5;" width="88" x="557.4437" y="527"/><line style="stroke:#181818;stroke-width:0.5;" x1="557.4437" x2="645.4437" y1="555.6211" y2="555.6211"/><text fill="#000000" font-family="sans-serif" font-size="14" lengthAdjust="spacing" textLength="68" x="567.4437" y="547.1074">IN_STOCK</text></g><g id="elem_stockToWasteCondition"><polygon fill="#F1F1F1" points="412.4437,656,424.4437,668,412.4437,680,400.4437,668,412.4437,656" style="stroke:#181818;stroke-width:0.5;"/></g><g id="IN_WASTE"><rect fill="#F1F1F1" height="50" rx="12.5" ry="12.5" style="stroke:#181818;stroke-width:0.5;" width="89" x="306.9437" y="759"/><line style="stroke:#181818;stroke-width:0.5;" x1="306.9437" x2="395.9437" y1="787.6211" y2="787.6211"/><text fill="#000000" font-family="sans-serif" font-size="14" lengthAdjust="spacing" textLength="69" x="316.9437" y="779.1074">IN_WASTE</text></g><g id="elem_wasteToStockCondition"><polygon fill="#F1F1F1" points="543.4437,888,555.4437,900,543.4437,912,531.4437,900,543.4437,888" style="stroke:#181818;stroke-width:0.5;"/></g><g id="elem_wasteToTableauCondition"><polygon fill="#F1F1F1" points="321.4437,888,333.4437,900,321.4437,912,309.4437,900,321.4437,888" style="stroke:#181818;stroke-width:0.5;"/></g><g id="elem_wasteToFoundationCondition"><polygon fill="#F1F1F1" points="69.4437,942,81.4437,954,69.4437,966,57.4437,954,69.4437,942" style="stroke:#181818;stroke-width:0.5;"/></g><g id="IN_FOUNDATION"><rect fill="#F1F1F1" height="50" rx="12.5" ry="12.5" style="stroke:#181818;stroke-width:0.5;" width="129" x="100.9437" y="1326"/><line style="stroke:#181818;stroke-width:0.5;" x1="100.9437" x2="229.9437" y1="1354.6211" y2="1354.6211"/><text fill="#000000" font-family="sans-serif" font-size="14" lengthAdjust="spacing" textLength="109" x="110.9437" y="1346.1074">IN_FOUNDATION</text></g><g id="elem_tableauToFoundationCondition"><polygon fill="#F1F1F1" points="248.4437,1223,260.4437,1235,248.4437,1247,236.4437,1235,248.4437,1223" style="stroke:#181818;stroke-width:0.5;"/></g><g id="elem_tableauToTableauCondition"><polygon fill="#F1F1F1" points="742.4437,1223,754.4437,1235,742.4437,1247,730.4437,1235,742.4437,1223" style="stroke:#181818;stroke-width:0.5;"/></g><g id="elem_GMN30"><path d="M678.4437,996 L678.4437,1144.3281 L1228.4437,1144.3281 L1228.4437,1006 L1218.4437,996 L678.4437,996 " fill="#FEFFDD" style="stroke:#181818;stroke-width:0.5;"/><path d="M1218.4437,996 L1218.4437,1006 L1228.4437,1006 L1218.4437,996 " fill="#FEFFDD" style="stroke:#181818;stroke-width:1.0;"/><text fill="#000000" font-family="sans-serif" font-size="13" font-weight="bold" lengthAdjust="spacing" textLength="168" x="684.4437" y="1015.0283">TableauChange condition:</text><text fill="#000000" font-family="sans-serif" font-size="13" lengthAdjust="spacing" textLength="312" x="684.4437" y="1032.3193">// cards: player choose N top displayed cards to move</text><text fill="#000000" font-family="sans-serif" font-size="13" lengthAdjust="spacing" textLength="118" x="684.4437" y="1049.6104">cards.contains(card)</text><text fill="#000000" font-family="sans-serif" font-size="13" lengthAdjust="spacing" textLength="31" x="684.4437" y="1066.9014">AND{</text><text fill="#000000" font-family="sans-serif" font-size="13" lengthAdjust="spacing" textLength="254" x="700.4437" y="1084.1924">target.isEmpty &amp; cards.bottom.rank = KING</text><text fill="#000000" font-family="sans-serif" font-size="13" lengthAdjust="spacing" textLength="19" x="700.4437" y="1101.4834">OR</text><text fill="#000000" font-family="sans-serif" font-size="13" lengthAdjust="spacing" textLength="513" x="700.4437" y="1118.7744">!target.isEmpty &amp; target.top.(color != cards.bottom.color &amp; rank = cards.bottom.rank + 1)</text><text fill="#000000" font-family="sans-serif" font-size="13" lengthAdjust="spacing" textLength="4" x="684.4437" y="1136.0654">}</text></g><g id="elem_foundationToTableauCondition"><polygon fill="#F1F1F1" points="391.4437,1455,403.4437,1467,391.4437,1479,379.4437,1467,391.4437,1455" style="stroke:#181818;stroke-width:0.5;"/></g><ellipse cx="26.4437" cy="1467" fill="none" rx="11" ry="11" style="stroke:#222222;stroke-width:1.0;"/><ellipse cx="26.4437" cy="1467" fill="#222222" rx="6" ry="6" style="stroke:#222222;stroke-width:1.0;"/><g id="elem_ToFoundationCondition"><path d="M750.9437,6 L750.9437,154.3281 L1319.9437,154.3281 L1319.9437,16 L1309.9437,6 L750.9437,6 " fill="#FEFFDD" style="stroke:#181818;stroke-width:0.5;"/><path d="M1309.9437,6 L1309.9437,16 L1319.9437,16 L1309.9437,6 " fill="#FEFFDD" style="stroke:#181818;stroke-width:1.0;"/><text fill="#000000" font-family="sans-serif" font-size="13" font-weight="bold" lengthAdjust="spacing" textLength="155" x="756.9437" y="25.0283">ToFoundation condition:</text><text fill="#000000" font-family="sans-serif" font-size="13" lengthAdjust="spacing" textLength="120" x="756.9437" y="42.3193">card = actualPile.top</text><text fill="#000000" font-family="sans-serif" font-size="13" lengthAdjust="spacing" textLength="27" x="756.9437" y="59.6104">AND</text><text fill="#000000" font-family="sans-serif" font-size="13" lengthAdjust="spacing" textLength="4" x="756.9437" y="76.9014">{</text><text fill="#000000" font-family="sans-serif" font-size="13" lengthAdjust="spacing" textLength="263" x="772.9437" y="94.1924">targetFoundation.isEmpty &amp; card.rank = ACE</text><text fill="#000000" font-family="sans-serif" font-size="13" lengthAdjust="spacing" textLength="19" x="772.9437" y="111.4834">OR</text><text fill="#000000" font-family="sans-serif" font-size="13" lengthAdjust="spacing" textLength="532" x="772.9437" y="128.7744">!targetFoundation.isEmpty &amp; targetFoundation.top.(suite = card.suite &amp; rank = card.rank - 1)</text><text fill="#000000" font-family="sans-serif" font-size="13" lengthAdjust="spacing" textLength="4" x="756.9437" y="146.0654">}</text></g><g id="elem_GMN40"><path d="M766.4437,215 L766.4437,363.3281 L1304.4437,363.3281 L1304.4437,225 L1294.4437,215 L766.4437,215 " fill="#FEFFDD" style="stroke:#181818;stroke-width:0.5;"/><path d="M1294.4437,215 L1294.4437,225 L1304.4437,225 L1294.4437,215 " fill="#FEFFDD" style="stroke:#181818;stroke-width:1.0;"/><text fill="#000000" font-family="sans-serif" font-size="13" font-weight="bold" lengthAdjust="spacing" textLength="135" x="772.4437" y="234.0283">ToTableau condition:</text><text fill="#000000" font-family="sans-serif" font-size="13" lengthAdjust="spacing" textLength="120" x="772.4437" y="251.3193">card = actualPile.top</text><text fill="#000000" font-family="sans-serif" font-size="13" lengthAdjust="spacing" textLength="27" x="772.4437" y="268.6104">AND</text><text fill="#000000" font-family="sans-serif" font-size="13" lengthAdjust="spacing" textLength="4" x="772.4437" y="285.9014">{</text><text fill="#000000" font-family="sans-serif" font-size="13" lengthAdjust="spacing" textLength="248" x="788.4437" y="303.1924">targetTableau.isEmpty &amp; card.rank = KING</text><text fill="#000000" font-family="sans-serif" font-size="13" lengthAdjust="spacing" textLength="19" x="788.4437" y="320.4834">OR</text><text fill="#000000" font-family="sans-serif" font-size="13" lengthAdjust="spacing" textLength="501" x="788.4437" y="337.7744">!targetTableau.isEmpty &amp; targetTableau.top.(color != card.color &amp; rank = card.rank + 1)</text><text fill="#000000" font-family="sans-serif" font-size="13" lengthAdjust="spacing" textLength="4" x="772.4437" y="355.0654">}</text></g><!--link *start* to IN_DECK--><g id="link_*start*_IN_DECK"><path d="M692.4437,90.16 C692.4437,120.44 692.4437,211.98 692.4437,257.8 " fill="none" id="*start*-to-IN_DECK" style="stroke:#181818;stroke-width:1.0;"/><polygon fill="#181818" points="692.4437,263.8,696.4437,254.8,692.4437,258.8,688.4437,254.8,692.4437,263.8" style="stroke:#181818;stroke-width:1.0;"/></g><!--link IN_DECK to dealChoice--><g id="link_IN_DECK_dealChoice"><path d="M692.4437,314.05 C692.4437,349.83 692.4437,409.66 692.4437,435.84 " fill="none" id="IN_DECK-to-dealChoice" style="stroke:#181818;stroke-width:1.0;"/><polygon fill="#181818" points="692.4437,441.84,696.4437,432.84,692.4437,436.84,688.4437,432.84,692.4437,441.84" style="stroke:#181818;stroke-width:1.0;"/><text fill="#000000" font-family="sans-serif" font-size="13" lengthAdjust="spacing" textLength="37" x="693.4437" y="408.0283">shuffle</text></g><!--link dealChoice to IN_TABLEAU--><g id="link_dealChoice_IN_TABLEAU"><path d="M700.2837,458.49 C722.5337,468.98 784.4437,502.52 784.4437,551 C784.4437,551 784.4437,551 784.4437,901 C784.4437,927.09 643.3414,1002.3594 564.9714,1042.2294 " fill="none" id="dealChoice-to-IN_TABLEAU" style="stroke:#181818;stroke-width:1.0;"/><polygon fill="#181818" points="559.6237,1044.95,569.459,1044.4342,564.0801,1042.6828,565.8316,1037.3039,559.6237,1044.95" style="stroke:#181818;stroke-width:1.0;"/><text fill="#000000" font-family="sans-serif" font-size="13" lengthAdjust="spacing" textLength="90" x="785.4437" y="725.0283">[card in 28 first]</text></g><!--link dealChoice to IN_STOCK--><g id="link_dealChoice_IN_STOCK"><path d="M687.0237,460.72 C675.0137,473.39 649.6717,500.1258 628.6817,522.2658 " fill="none" id="dealChoice-to-IN_STOCK" style="stroke:#181818;stroke-width:1.0;"/><polygon fill="#181818" points="624.5537,526.62,633.6486,522.8407,627.9937,522.9915,627.843,517.3366,624.5537,526.62" style="stroke:#181818;stroke-width:1.0;"/></g><!--link IN_STOCK to stockToWasteCondition--><g id="link_IN_STOCK_stockToWasteCondition"><path d="M557.3137,566.1 C530.7837,575.18 497.1037,588.89 470.4437,607 C447.4337,622.63 429.9461,643.7945 420.8261,655.7845 " fill="none" id="IN_STOCK-to-stockToWasteCondition" style="stroke:#181818;stroke-width:1.0;"/><polygon fill="#181818" points="417.1937,660.56,425.826,655.8183,420.2207,656.5804,419.4586,650.9751,417.1937,660.56" style="stroke:#181818;stroke-width:1.0;"/><text fill="#000000" font-family="sans-serif" font-size="13" lengthAdjust="spacing" textLength="103" x="471.4437" y="622.0283">[card = stock.top]</text></g><!--link stockToWasteCondition to IN_WASTE--><g id="link_stockToWasteCondition_IN_WASTE"><path d="M408.4437,676.48 C399.6437,692.93 381.1131,727.539 367.1931,753.569 " fill="none" id="stockToWasteCondition-to-IN_WASTE" style="stroke:#181818;stroke-width:1.0;"/><polygon fill="#181818" points="364.3637,758.86,372.1352,752.8098,366.7216,754.4509,365.0805,749.0373,364.3637,758.86" style="stroke:#181818;stroke-width:1.0;"/><text fill="#000000" font-family="sans-serif" font-size="13" lengthAdjust="spacing" textLength="143" x="390.4437" y="725.0283">stockToWasteMovement</text></g><!--link IN_WASTE to wasteToStockCondition--><g id="link_IN_WASTE_wasteToStockCondition"><path d="M394.1737,809.21 C410.2937,818.44 428.7737,829.11 445.4437,839 C479.7637,859.36 515.1843,881.3523 531.2643,891.3923 " fill="none" id="IN_WASTE-to-wasteToStockCondition" style="stroke:#181818;stroke-width:1.0;"/><polygon fill="#181818" points="536.3537,894.57,530.8381,886.4105,532.1125,891.9219,526.6011,893.1964,536.3537,894.57" style="stroke:#181818;stroke-width:1.0;"/><text fill="#000000" font-family="sans-serif" font-size="13" lengthAdjust="spacing" textLength="92" x="476.4437" y="854.0283">[stock.isEmpty]</text></g><!--link wasteToStockCondition to IN_STOCK--><g id="link_wasteToStockCondition_IN_STOCK"><path d="M549.5337,893.91 C557.5537,886.8 571.3237,873.08 577.4437,858 C598.0637,807.18 600.9974,645.8899 601.3774,583.0999 " fill="none" id="wasteToStockCondition-to-IN_STOCK" style="stroke:#181818;stroke-width:1.0;"/><polygon fill="#181818" points="601.4137,577.1,597.3593,586.0756,601.3834,582.0999,605.3592,586.124,601.4137,577.1" style="stroke:#181818;stroke-width:1.0;"/><text fill="#000000" font-family="sans-serif" font-size="13" lengthAdjust="spacing" textLength="141" x="599.4437" y="725.0283">wasteToStockMovement</text></g><!--link IN_WASTE to wasteToTableauCondition--><g id="link_IN_WASTE_wasteToTableauCondition"><path d="M309.1237,809.09 C298.8237,817.17 289.1437,827.19 283.4437,839 C272.8237,860.98 296.4918,881.3479 309.9718,891.0379 " fill="none" id="IN_WASTE-to-wasteToTableauCondition" style="stroke:#181818;stroke-width:1.0;"/><polygon fill="#181818" points="314.8437,894.54,309.8706,886.0389,310.7838,891.6216,305.2011,892.5347,314.8437,894.54" style="stroke:#181818;stroke-width:1.0;"/><text fill="#000000" font-family="sans-serif" font-size="13" lengthAdjust="spacing" textLength="156" x="284.4437" y="854.0283">[Note: ToTableauCondition]</text></g><!--link wasteToTableauCondition to IN_TABLEAU--><g id="link_wasteToTableauCondition_IN_TABLEAU"><path d="M327.3337,906.21 C350.8237,926.98 434.1792,1000.6752 479.4992,1040.7552 " fill="none" id="wasteToTableauCondition-to-IN_TABLEAU" style="stroke:#181818;stroke-width:1.0;"/><polygon fill="#181818" points="483.9937,1044.73,479.9018,1035.7714,480.2483,1041.4176,474.602,1041.7641,483.9937,1044.73" style="stroke:#181818;stroke-width:1.0;"/><text fill="#000000" font-family="sans-serif" font-size="13" lengthAdjust="spacing" textLength="152" x="395.4437" y="959.5283">wasteToTableauMovement</text></g><!--link IN_WASTE to wasteToFoundationCondition--><g id="link_IN_WASTE_wasteToFoundationCondition"><path d="M306.6937,788.77 C241.7237,795.16 125.8237,810.31 96.4437,839 C67.4837,867.28 66.879,914.4905 68.199,936.7805 " fill="none" id="IN_WASTE-to-wasteToFoundationCondition" style="stroke:#181818;stroke-width:1.0;"/><polygon fill="#181818" points="68.5537,942.77,72.0147,933.5493,68.2581,937.7787,64.0286,934.0222,68.5537,942.77" style="stroke:#181818;stroke-width:1.0;"/><text fill="#000000" font-family="sans-serif" font-size="13" lengthAdjust="spacing" textLength="175" x="97.4437" y="854.0283">[Note: ToFoundationCondition]</text></g><!--link wasteToFoundationCondition to IN_FOUNDATION--><g id="link_wasteToFoundationCondition_IN_FOUNDATION"><path d="M68.6137,965.22 C66.2137,998.67 60.8437,1107.6 84.4437,1193 C98.3337,1243.26 126.2214,1290.9708 145.5914,1320.7408 " fill="none" id="wasteToFoundationCondition-to-IN_FOUNDATION" style="stroke:#181818;stroke-width:1.0;"/><polygon fill="#181818" points="148.8637,1325.77,147.3081,1316.0448,146.1368,1321.579,140.6026,1320.4078,148.8637,1325.77" style="stroke:#181818;stroke-width:1.0;"/><text fill="#000000" font-family="sans-serif" font-size="13" lengthAdjust="spacing" textLength="171" x="85.4437" y="1189.0283">wasteToFoundationMovement</text></g><!--link IN_TABLEAU to tableauToFoundationCondition--><g id="link_IN_TABLEAU_tableauToFoundationCondition"><path d="M460.1637,1083.05 C409.0337,1097.32 330.9137,1125.48 279.4437,1174 C264.0837,1188.48 256.8086,1206.5379 252.7586,1219.3779 " fill="none" id="IN_TABLEAU-to-tableauToFoundationCondition" style="stroke:#181818;stroke-width:1.0;"/><polygon fill="#181818" points="250.9537,1225.1,257.4757,1217.7201,252.4578,1220.3316,249.8463,1215.3136,250.9537,1225.1" style="stroke:#181818;stroke-width:1.0;"/><text fill="#000000" font-family="sans-serif" font-size="13" lengthAdjust="spacing" textLength="175" x="280.4437" y="1189.0283">[Note: ToFoundationCondition]</text></g><!--link tableauToFoundationCondition to IN_FOUNDATION--><g id="link_tableauToFoundationCondition_IN_FOUNDATION"><path d="M243.7437,1242.46 C232.2937,1258.19 205.9953,1294.3095 186.6353,1320.8995 " fill="none" id="tableauToFoundationCondition-to-IN_FOUNDATION" style="stroke:#181818;stroke-width:1.0;"/><polygon fill="#181818" points="183.1037,1325.75,191.6348,1320.8286,186.0467,1321.7079,185.1675,1316.1198,183.1037,1325.75" style="stroke:#181818;stroke-width:1.0;"/><text fill="#000000" font-family="sans-serif" font-size="13" lengthAdjust="spacing" textLength="179" x="218.4437" y="1292.0283">tableauToFoundationMovement</text></g><!--link IN_TABLEAU to tableauToTableauCondition--><g id="link_IN_TABLEAU_tableauToTableauCondition"><path d="M562.7937,1094.95 C611.7337,1118.4 681.1637,1153.52 703.4437,1174 C720.2737,1189.47 730.4901,1208.2753 736.3501,1220.6753 " fill="none" id="IN_TABLEAU-to-tableauToTableauCondition" style="stroke:#181818;stroke-width:1.0;"/><polygon fill="#181818" points="738.9137,1226.1,738.6847,1216.2538,736.7773,1221.5794,731.4518,1219.672,738.9137,1226.1" style="stroke:#181818;stroke-width:1.0;"/><text fill="#000000" font-family="sans-serif" font-size="13" lengthAdjust="spacing" textLength="186" x="720.4437" y="1189.0283">[Note: TableauChangeCondition]</text></g><!--link tableauToTableauCondition to IN_TABLEAU--><g id="link_tableauToTableauCondition_IN_TABLEAU"><path d="M731.8637,1233.46 C693.3937,1231.26 561.7237,1221.72 533.4437,1193 C508.0737,1167.24 506.1022,1128.7352 508.0422,1101.1852 " fill="none" id="tableauToTableauCondition-to-IN_TABLEAU" style="stroke:#181818;stroke-width:1.0;"/><polygon fill="#181818" points="508.4637,1095.2,503.8414,1103.8968,508.1125,1100.1876,511.8216,1104.4587,508.4637,1095.2" style="stroke:#181818;stroke-width:1.0;"/><text fill="#000000" font-family="sans-serif" font-size="13" lengthAdjust="spacing" textLength="160" x="534.4437" y="1189.0283">tableauToTableauMovement</text></g><!--link GMN30 to tableauToTableauCondition--><g id="link_GMN30_tableauToTableauCondition"><path d="M954.0537,1144.28 C950.7637,1162.18 944.0737,1179.92 931.4437,1193 C906.2537,1219.09 789.0237,1230.34 753.0037,1233.22 " fill="none" id="GMN30-tableauToTableauCondition" style="stroke:#181818;stroke-width:1.0;stroke-dasharray:7.0,7.0;"/></g><!--link IN_FOUNDATION to foundationToTableauCondition--><g id="link_IN_FOUNDATION_foundationToTableauCondition"><path d="M208.4637,1376.14 C240.3637,1393.94 281.2037,1416.49 298.4437,1425 C329.2937,1440.23 361.5521,1453.7741 377.8221,1460.4441 " fill="none" id="IN_FOUNDATION-to-foundationToTableauCondition" style="stroke:#181818;stroke-width:1.0;"/><polygon fill="#181818" points="383.3737,1462.72,376.5636,1455.6051,378.7474,1460.8234,373.529,1463.0072,383.3737,1462.72" style="stroke:#181818;stroke-width:1.0;"/><text fill="#000000" font-family="sans-serif" font-size="13" lengthAdjust="spacing" textLength="156" x="299.4437" y="1421.0283">[Note: ToTableauCondition]</text></g><!--link foundationToTableauCondition to IN_TABLEAU--><g id="link_foundationToTableauCondition_IN_TABLEAU"><path d="M400.3837,1463.47 C415.5037,1458.68 445.8937,1446.78 460.4437,1425 C496.7837,1370.59 507.6179,1171.8454 510.3979,1101.1654 " fill="none" id="foundationToTableauCondition-to-IN_TABLEAU" style="stroke:#181818;stroke-width:1.0;"/><polygon fill="#181818" points="510.6337,1095.17,506.2831,1104.0058,510.4372,1100.1661,514.2769,1104.3203,510.6337,1095.17" style="stroke:#181818;stroke-width:1.0;"/><text fill="#000000" font-family="sans-serif" font-size="13" lengthAdjust="spacing" textLength="177" x="498.4437" y="1292.0283">foundationToTableauMovement</text></g><!--link IN_FOUNDATION to *end*--><g id="link_IN_FOUNDATION_*end*"><path d="M100.8037,1360 C72.1237,1367.13 40.9637,1380.6 23.4437,1406 C13.0237,1421.11 16.4148,1438.1219 20.7548,1450.8319 " fill="none" id="IN_FOUNDATION-to-*end*" style="stroke:#181818;stroke-width:1.0;"/><polygon fill="#181818" points="22.6937,1456.51,23.5708,1446.7003,21.078,1451.7783,16,1449.2854,22.6937,1456.51" style="stroke:#181818;stroke-width:1.0;"/><text fill="#000000" font-family="sans-serif" font-size="13" lengthAdjust="spacing" textLength="233" x="24.4437" y="1421.0283">[all cards in foundation | player resigned]</text></g><!--link ToFoundationCondition to GMN40--><g id="link_ToFoundationCondition_GMN40"><path d="M1035.4437,154.27 C1035.4437,173.93 1035.4437,195.18 1035.4437,214.83 " fill="none" id="ToFoundationCondition-GMN40" style="stroke:#181818;stroke-width:1.0;stroke-dasharray:7.0,7.0;"/></g><!--SRC=[dLNTRjem6BttKxWtLRk9eErgGXGf1JgXRc4QgNg1q6GI0rP3Z6ApgLhtxlDV4YSs0PMROFiSV-VOvqkM7rQmrnl1MVHhCXq_0iOHnwrHYb4stb6IO3WS9khFQ0GCHh4jn02otN6poJ2m9as5EBp_DWsV16QPe2A598UVly0DAHXVUU2BU2uqr9BqM0yPfybBJ9yHutXCyvHmGlEMF8LNc_dHfOmxlHvmUbW1FzGeUWuNyLHQj43VwM-ynpctX2gO6VwHc9Wk9EEKKBsjhE572w5Q8M7J_O6_he0VPv-R8DcWIcL3LOpM6KR7YtKvUA4ieXmFeBjMYNH8JXgQGB_K1thCKoJv5wlrKIp1dkLAiuzgP3_Cdw996C_cKQsyXdlIO7oQ2QvDNcAeF21Pk9DspbGdsMVBGsZTIeKu4o6lXuuOcPKTohVOSf1JMPCUm70zQc1WKe86m_vw1FfzA7kQ3U0XGw-uW48CPHX6aWrJmjHqga5Y3kw5Bw16WTYA8vAp6pcy1M4q-GkW-75KR34lcmzUQtAmffpJVL2W_4MyGXvdqLU5dlzKZok7PIQ4Zk0ceHajuDLTSoizUmtDbcwPZ_3JBVW7S9v2UIBWz8awFTQ6Ue9QHy3CRQhRFtlFLdnawKvcvqkZa-cuyg0hOwwgfVZOYU8eoypzYmzGlGDyApDJO4QsEKvNG0SFCNzdgJHQ2-qmcgyBIlWHPJz8XkNborm1ErWrlnMnCbhXUEf9bfVcBAcqiICHBdIW0ZreX4mNwhN2fRth-6cdveJVPzEGJtWyqJukgJdlDfElYVpD0y1_]--></g></svg>