<?xml version="1.0" encoding="us-ascii" standalone="no"?><svg xmlns="http://www.w3.org/2000/svg" xmlns:xlink="http://www.w3.org/1999/xlink" contentStyleType="text/css" height="223px" preserveAspectRatio="none" style="width:249px;height:223px;background:#FFFFFF;" version="1.1" viewBox="0 0 249 223" width="249px" zoomAndPan="magnify"><defs/><g><rect fill="none" height="113.1641" style="stroke:#000000;stroke-width:1.5;" width="233.5" x="10" y="55.6211"/><line style="stroke:#181818;stroke-width:0.5;stroke-dasharray:5.0,5.0;" x1="49" x2="49" y1="38.6211" y2="185.7852"/><line style="stroke:#181818;stroke-width:0.5;stroke-dasharray:5.0,5.0;" x1="138.5" x2="138.5" y1="38.6211" y2="185.7852"/><line style="stroke:#181818;stroke-width:0.5;stroke-dasharray:5.0,5.0;" x1="204.5" x2="204.5" y1="38.6211" y2="185.7852"/><rect fill="#E2E2F0" height="32.6211" rx="2.5" ry="2.5" style="stroke:#181818;stroke-width:0.5;" width="58" x="20" y="5"/><text fill="#000000" font-family="sans-serif" font-size="14" lengthAdjust="spacing" textLength="44" x="27" y="27.1074">:Player</text><rect fill="#E2E2F0" height="32.6211" rx="2.5" ry="2.5" style="stroke:#181818;stroke-width:0.5;" width="58" x="20" y="184.7852"/><text fill="#000000" font-family="sans-serif" font-size="14" lengthAdjust="spacing" textLength="44" x="27" y="206.8926">:Player</text><rect fill="#E2E2F0" height="32.6211" rx="2.5" ry="2.5" style="stroke:#181818;stroke-width:0.5;" width="53" x="112.5" y="5"/><text fill="#000000" font-family="sans-serif" font-size="14" lengthAdjust="spacing" textLength="39" x="119.5" y="27.1074">:Stock</text><rect fill="#E2E2F0" height="32.6211" rx="2.5" ry="2.5" style="stroke:#181818;stroke-width:0.5;" width="53" x="112.5" y="184.7852"/><text fill="#000000" font-family="sans-serif" font-size="14" lengthAdjust="spacing" textLength="39" x="119.5" y="206.8926">:Stock</text><rect fill="#E2E2F0" height="32.6211" rx="2.5" ry="2.5" style="stroke:#181818;stroke-width:0.5;" width="58" x="175.5" y="5"/><text fill="#000000" font-family="sans-serif" font-size="14" lengthAdjust="spacing" textLength="44" x="182.5" y="27.1074">:Waste</text><rect fill="#E2E2F0" height="32.6211" rx="2.5" ry="2.5" style="stroke:#181818;stroke-width:0.5;" width="58" x="175.5" y="184.7852"/><text fill="#000000" font-family="sans-serif" font-size="14" lengthAdjust="spacing" textLength="44" x="182.5" y="206.8926">:Waste</text><path d="M10,55.6211 L71,55.6211 L71,64.9121 L61,74.9121 L10,74.9121 L10,55.6211 " fill="#EEEEEE" style="stroke:#000000;stroke-width:1.5;"/><rect fill="none" height="113.1641" style="stroke:#000000;stroke-width:1.5;" width="233.5" x="10" y="55.6211"/><text fill="#000000" font-family="sans-serif" font-size="13" font-weight="bold" lengthAdjust="spacing" textLength="16" x="25" y="70.6494">alt</text><text fill="#000000" font-family="sans-serif" font-size="11" font-weight="bold" lengthAdjust="spacing" textLength="89" x="86" y="69.4912">[!stock.isEmpty]</text><polygon fill="#181818" points="127,94.2031,137,98.2031,127,102.2031,131,98.2031" style="stroke:#181818;stroke-width:1.0;"/><line style="stroke:#181818;stroke-width:1.0;" x1="49" x2="133" y1="98.2031" y2="98.2031"/><text fill="#000000" font-family="sans-serif" font-size="13" lengthAdjust="spacing" textLength="66" x="56" y="92.9404">getTopCard</text><polygon fill="#181818" points="60,125.4941,50,129.4941,60,133.4941,56,129.4941" style="stroke:#181818;stroke-width:1.0;"/><line style="stroke:#181818;stroke-width:1.0;" x1="54" x2="138" y1="129.4941" y2="129.4941"/><text fill="#000000" font-family="sans-serif" font-size="13" lengthAdjust="spacing" textLength="62" x="66" y="124.2314">return card</text><polygon fill="#181818" points="192.5,156.7852,202.5,160.7852,192.5,164.7852,196.5,160.7852" style="stroke:#181818;stroke-width:1.0;"/><line style="stroke:#181818;stroke-width:1.0;" x1="49" x2="198.5" y1="160.7852" y2="160.7852"/><text fill="#000000" font-family="sans-serif" font-size="13" lengthAdjust="spacing" textLength="89" x="56" y="155.5225">putOnTop(card)</text><!--SRC=[NOsn2W8n38RtF4MyIGTzW0ukugpWWNFe1IcUlT3ca7jxsrGHxVIJx-EhKDBWWr1KxDnvf8LJXvHHR8Byy8jE_cuur_L7hvILZJxh0g1HSMNcBkJZGtG1BA-bSRjl5NHuO-qdEL0QJ6Zdmj-cmyGwfuZ-OtmJzbKnPDPJB95rTJR0SO0N]--></g></svg>