<?xml version="1.0" encoding="us-ascii" standalone="no"?><svg xmlns="http://www.w3.org/2000/svg" xmlns:xlink="http://www.w3.org/1999/xlink" contentStyleType="text/css" height="421px" preserveAspectRatio="none" style="width:1068px;height:421px;background:#FFFFFF;" version="1.1" viewBox="0 0 1068 421" width="1068px" zoomAndPan="magnify"><defs/><g><rect fill="none" height="310.9102" style="stroke:#000000;stroke-width:1.5;" width="512.5" x="10" y="55.6211"/><rect fill="none" height="246.3281" style="stroke:#000000;stroke-width:1.5;" width="492.5" x="20" y="113.2031"/><rect fill="none" height="148.4551" style="stroke:#000000;stroke-width:1.5;" width="472.5" x="30" y="170.7852"/><rect fill="none" height="50.582" style="stroke:#000000;stroke-width:1.5;" width="341.5" x="40" y="228.3672"/><line style="stroke:#181818;stroke-width:0.5;stroke-dasharray:5.0,5.0;" x1="79" x2="79" y1="38.6211" y2="383.5313"/><line style="stroke:#181818;stroke-width:0.5;stroke-dasharray:5.0,5.0;" x1="316.5" x2="316.5" y1="38.6211" y2="383.5313"/><line style="stroke:#181818;stroke-width:0.5;stroke-dasharray:5.0,5.0;" x1="436.5" x2="436.5" y1="38.6211" y2="383.5313"/><rect fill="#E2E2F0" height="32.6211" rx="2.5" ry="2.5" style="stroke:#181818;stroke-width:0.5;" width="58" x="50" y="5"/><text fill="#000000" font-family="sans-serif" font-size="14" lengthAdjust="spacing" textLength="44" x="57" y="27.1074">:Player</text><rect fill="#E2E2F0" height="32.6211" rx="2.5" ry="2.5" style="stroke:#181818;stroke-width:0.5;" width="58" x="50" y="382.5313"/><text fill="#000000" font-family="sans-serif" font-size="14" lengthAdjust="spacing" textLength="44" x="57" y="404.6387">:Player</text><rect fill="#E2E2F0" height="32.6211" rx="2.5" ry="2.5" style="stroke:#181818;stroke-width:0.5;" width="109" x="262.5" y="5"/><text fill="#000000" font-family="sans-serif" font-size="14" lengthAdjust="spacing" textLength="95" x="269.5" y="27.1074">origin :Tableau</text><rect fill="#E2E2F0" height="32.6211" rx="2.5" ry="2.5" style="stroke:#181818;stroke-width:0.5;" width="109" x="262.5" y="382.5313"/><text fill="#000000" font-family="sans-serif" font-size="14" lengthAdjust="spacing" textLength="95" x="269.5" y="404.6387">origin :Tableau</text><rect fill="#E2E2F0" height="32.6211" rx="2.5" ry="2.5" style="stroke:#181818;stroke-width:0.5;" width="111" x="381.5" y="5"/><text fill="#000000" font-family="sans-serif" font-size="14" lengthAdjust="spacing" textLength="97" x="388.5" y="27.1074">target :Tableau</text><rect fill="#E2E2F0" height="32.6211" rx="2.5" ry="2.5" style="stroke:#181818;stroke-width:0.5;" width="111" x="381.5" y="382.5313"/><text fill="#000000" font-family="sans-serif" font-size="14" lengthAdjust="spacing" textLength="97" x="388.5" y="404.6387">target :Tableau</text><path d="M10,55.6211 L71,55.6211 L71,64.9121 L61,74.9121 L10,74.9121 L10,55.6211 " fill="#EEEEEE" style="stroke:#000000;stroke-width:1.5;"/><rect fill="none" height="310.9102" style="stroke:#000000;stroke-width:1.5;" width="512.5" x="10" y="55.6211"/><text fill="#000000" font-family="sans-serif" font-size="13" font-weight="bold" lengthAdjust="spacing" textLength="16" x="25" y="70.6494">alt</text><text fill="#000000" font-family="sans-serif" font-size="11" font-weight="bold" lengthAdjust="spacing" textLength="90" x="86" y="69.4912">[!origin.isEmpty]</text><path d="M527.5,60.6211 L527.5,139.6211 L1061.5,139.6211 L1061.5,70.6211 L1051.5,60.6211 L527.5,60.6211 " fill="#FEFFDD" style="stroke:#181818;stroke-width:0.5;"/><path d="M1051.5,60.6211 L1051.5,70.6211 L1061.5,70.6211 L1051.5,60.6211 " fill="#FEFFDD" style="stroke:#181818;stroke-width:0.5;"/><text fill="#000000" font-family="sans-serif" font-size="13" font-weight="bold" lengthAdjust="spacing" textLength="160" x="533.5" y="79.6494">TargetTableau condition:</text><text fill="#000000" font-family="sans-serif" font-size="13" lengthAdjust="spacing" textLength="254" x="533.5" y="96.9404">target.isEmpty &amp; cards.bottom.rank = KING</text><text fill="#000000" font-family="sans-serif" font-size="13" lengthAdjust="spacing" textLength="19" x="533.5" y="114.2314">OR</text><text fill="#000000" font-family="sans-serif" font-size="13" lengthAdjust="spacing" textLength="513" x="533.5" y="131.5225">!target.isEmpty &amp; target.top.(color != cards.bottom.color &amp; rank = cards.bottom.rank + 1)</text><polygon fill="#181818" points="305,94.2031,315,98.2031,305,102.2031,309,98.2031" style="stroke:#181818;stroke-width:1.0;"/><line style="stroke:#181818;stroke-width:1.0;" x1="79" x2="311" y1="98.2031" y2="98.2031"/><text fill="#000000" font-family="sans-serif" font-size="13" lengthAdjust="spacing" textLength="214" x="86" y="92.9404">getTopDisplayeds(numCardsToMove)</text><path d="M20,113.2031 L81,113.2031 L81,122.4941 L71,132.4941 L20,132.4941 L20,113.2031 " fill="#EEEEEE" style="stroke:#000000;stroke-width:1.5;"/><rect fill="none" height="246.3281" style="stroke:#000000;stroke-width:1.5;" width="492.5" x="20" y="113.2031"/><text fill="#000000" font-family="sans-serif" font-size="13" font-weight="bold" lengthAdjust="spacing" textLength="16" x="35" y="128.2314">alt</text><text fill="#000000" font-family="sans-serif" font-size="11" font-weight="bold" lengthAdjust="spacing" textLength="249" x="96" y="127.0732">[numCardsToMove &lt;= origin.displayeds.size]</text><polygon fill="#181818" points="90,151.7852,80,155.7852,90,159.7852,86,155.7852" style="stroke:#181818;stroke-width:1.0;"/><line style="stroke:#181818;stroke-width:1.0;" x1="84" x2="316" y1="155.7852" y2="155.7852"/><text fill="#000000" font-family="sans-serif" font-size="13" lengthAdjust="spacing" textLength="69" x="96" y="150.5225">return cards</text><path d="M30,170.7852 L91,170.7852 L91,180.0762 L81,190.0762 L30,190.0762 L30,170.7852 " fill="#EEEEEE" style="stroke:#000000;stroke-width:1.5;"/><rect fill="none" height="148.4551" style="stroke:#000000;stroke-width:1.5;" width="472.5" x="30" y="170.7852"/><text fill="#000000" font-family="sans-serif" font-size="13" font-weight="bold" lengthAdjust="spacing" textLength="16" x="45" y="185.8135">alt</text><text fill="#000000" font-family="sans-serif" font-size="11" font-weight="bold" lengthAdjust="spacing" textLength="172" x="106" y="184.6553">[Note: TargetTableau condition]</text><polygon fill="#181818" points="425,209.3672,435,213.3672,425,217.3672,429,213.3672" style="stroke:#181818;stroke-width:1.0;"/><line style="stroke:#181818;stroke-width:1.0;" x1="79" x2="431" y1="213.3672" y2="213.3672"/><text fill="#000000" font-family="sans-serif" font-size="13" lengthAdjust="spacing" textLength="96" x="86" y="208.1045">putOnTop(cards)</text><path d="M40,228.3672 L101,228.3672 L101,237.6582 L91,247.6582 L40,247.6582 L40,228.3672 " fill="#EEEEEE" style="stroke:#000000;stroke-width:1.5;"/><rect fill="none" height="50.582" style="stroke:#000000;stroke-width:1.5;" width="341.5" x="40" y="228.3672"/><text fill="#000000" font-family="sans-serif" font-size="13" font-weight="bold" lengthAdjust="spacing" textLength="16" x="55" y="243.3955">alt</text><text fill="#000000" font-family="sans-serif" font-size="11" font-weight="bold" lengthAdjust="spacing" textLength="90" x="116" y="242.2373">[!origin.isEmpty]</text><polygon fill="#181818" points="305,266.9492,315,270.9492,305,274.9492,309,270.9492" style="stroke:#181818;stroke-width:1.0;"/><line style="stroke:#181818;stroke-width:1.0;" x1="79" x2="311" y1="270.9492" y2="270.9492"/><text fill="#000000" font-family="sans-serif" font-size="13" lengthAdjust="spacing" textLength="89" x="86" y="265.6865">displayTopCard</text><line style="stroke:#000000;stroke-width:1.0;stroke-dasharray:2.0,2.0;" x1="30" x2="502.5" y1="286.9492" y2="286.9492"/><polygon fill="#181818" points="305,307.2402,315,311.2402,305,315.2402,309,311.2402" style="stroke:#181818;stroke-width:1.0;"/><line style="stroke:#181818;stroke-width:1.0;" x1="79" x2="311" y1="311.2402" y2="311.2402"/><text fill="#000000" font-family="sans-serif" font-size="13" lengthAdjust="spacing" textLength="96" x="86" y="305.9775">putOnTop(cards)</text><line style="stroke:#000000;stroke-width:1.0;stroke-dasharray:2.0,2.0;" x1="20" x2="512.5" y1="327.2402" y2="327.2402"/><polygon fill="#181818" points="90,347.5313,80,351.5313,90,355.5313,86,351.5313" style="stroke:#181818;stroke-width:1.0;"/><line style="stroke:#181818;stroke-width:1.0;" x1="84" x2="316" y1="351.5313" y2="351.5313"/><text fill="#000000" font-family="sans-serif" font-size="13" lengthAdjust="spacing" textLength="109" x="96" y="346.2686">return empty cards</text><!--SRC=[XP1DJiCm48NtFiMaYoeH8eXjr7G32254Yr0ku2HMiKXjovuWbTFZluQQ4E65POtVV6_cAQgHTrnHWR2gNWTwOde5r83oJw8k_wNc1owWQcWxC3fwNQYbEgJwm33LXHeXT438GbF9pSDHuOc0FS4FhhTmTW6hRwIwvyR_zIONu_6EwjuqyaL-iiBtELvQXqqT6MK_zPQ6Vp7Vu4wqi6RHjWBDSDG2EiSXaz3HTn9P1OsVFsu4dHGzHox5f4ntE2S0QiIzi5la7boGHB-KnT_CAPUubQMwhPCE9leV2pOOHlvX_Pxl4ZHZBCV6tEmnl6aETmaR7jYsToIRThiGOhMvQRSaP7OE0jO1LxOIKHvBJSK7rF3yj7ia-pUIpTInW5ALUIS7gI6hKqIehY6YvlWhk2tSrE2c9jy0]--></g></svg>