<?xml version="1.0" encoding="us-ascii" standalone="no"?><svg xmlns="http://www.w3.org/2000/svg" xmlns:xlink="http://www.w3.org/1999/xlink" contentStyleType="text/css" height="354px" preserveAspectRatio="none" style="width:826px;height:354px;background:#FFFFFF;" version="1.1" viewBox="0 0 826 354" width="826px" zoomAndPan="magnify"><defs/><g><rect fill="none" height="244.3281" style="stroke:#000000;stroke-width:1.5;" width="327" x="10" y="55.6211"/><rect fill="none" height="148.4551" style="stroke:#000000;stroke-width:1.5;" width="307" x="20" y="144.4941"/><rect fill="none" height="50.582" style="stroke:#000000;stroke-width:1.5;" width="197" x="30" y="202.0762"/><line style="stroke:#181818;stroke-width:0.5;stroke-dasharray:5.0,5.0;" x1="69" x2="69" y1="38.6211" y2="316.9492"/><line style="stroke:#181818;stroke-width:0.5;stroke-dasharray:5.0,5.0;" x1="182" x2="182" y1="38.6211" y2="316.9492"/><line style="stroke:#181818;stroke-width:0.5;stroke-dasharray:5.0,5.0;" x1="272" x2="272" y1="38.6211" y2="316.9492"/><rect fill="#E2E2F0" height="32.6211" rx="2.5" ry="2.5" style="stroke:#181818;stroke-width:0.5;" width="58" x="40" y="5"/><text fill="#000000" font-family="sans-serif" font-size="14" lengthAdjust="spacing" textLength="44" x="47" y="27.1074">:Player</text><rect fill="#E2E2F0" height="32.6211" rx="2.5" ry="2.5" style="stroke:#181818;stroke-width:0.5;" width="58" x="40" y="315.9492"/><text fill="#000000" font-family="sans-serif" font-size="14" lengthAdjust="spacing" textLength="44" x="47" y="338.0566">:Player</text><rect fill="#E2E2F0" height="32.6211" rx="2.5" ry="2.5" style="stroke:#181818;stroke-width:0.5;" width="70" x="147" y="5"/><text fill="#000000" font-family="sans-serif" font-size="14" lengthAdjust="spacing" textLength="56" x="154" y="27.1074">:Tableau</text><rect fill="#E2E2F0" height="32.6211" rx="2.5" ry="2.5" style="stroke:#181818;stroke-width:0.5;" width="70" x="147" y="315.9492"/><text fill="#000000" font-family="sans-serif" font-size="14" lengthAdjust="spacing" textLength="56" x="154" y="338.0566">:Tableau</text><rect fill="#E2E2F0" height="32.6211" rx="2.5" ry="2.5" style="stroke:#181818;stroke-width:0.5;" width="90" x="227" y="5"/><text fill="#000000" font-family="sans-serif" font-size="14" lengthAdjust="spacing" textLength="76" x="234" y="27.1074">:Foundation</text><rect fill="#E2E2F0" height="32.6211" rx="2.5" ry="2.5" style="stroke:#181818;stroke-width:0.5;" width="90" x="227" y="315.9492"/><text fill="#000000" font-family="sans-serif" font-size="14" lengthAdjust="spacing" textLength="76" x="234" y="338.0566">:Foundation</text><path d="M10,55.6211 L71,55.6211 L71,64.9121 L61,74.9121 L10,74.9121 L10,55.6211 " fill="#EEEEEE" style="stroke:#000000;stroke-width:1.5;"/><rect fill="none" height="244.3281" style="stroke:#000000;stroke-width:1.5;" width="327" x="10" y="55.6211"/><text fill="#000000" font-family="sans-serif" font-size="13" font-weight="bold" lengthAdjust="spacing" textLength="16" x="25" y="70.6494">alt</text><text fill="#000000" font-family="sans-serif" font-size="11" font-weight="bold" lengthAdjust="spacing" textLength="98" x="86" y="69.4912">[!tableau.isEmpty]</text><path d="M342,60.6211 L342,139.6211 L819,139.6211 L819,70.6211 L809,60.6211 L342,60.6211 " fill="#FEFFDD" style="stroke:#181818;stroke-width:0.5;"/><path d="M809,60.6211 L809,70.6211 L819,70.6211 L809,60.6211 " fill="#FEFFDD" style="stroke:#181818;stroke-width:0.5;"/><text fill="#000000" font-family="sans-serif" font-size="13" font-weight="bold" lengthAdjust="spacing" textLength="139" x="348" y="79.6494">Foundation condition:</text><text fill="#000000" font-family="sans-serif" font-size="13" lengthAdjust="spacing" textLength="225" x="348" y="96.9404">foundation.isEmpty &amp; card.rank = ACE</text><text fill="#000000" font-family="sans-serif" font-size="13" lengthAdjust="spacing" textLength="19" x="348" y="114.2314">OR</text><text fill="#000000" font-family="sans-serif" font-size="13" lengthAdjust="spacing" textLength="456" x="348" y="131.5225">!foundation.isEmpty &amp; foundation.top.(suite = card.suite &amp; rank = card.rank - 1)</text><polygon fill="#181818" points="170,94.2031,180,98.2031,170,102.2031,174,98.2031" style="stroke:#181818;stroke-width:1.0;"/><line style="stroke:#181818;stroke-width:1.0;" x1="69" x2="176" y1="98.2031" y2="98.2031"/><text fill="#000000" font-family="sans-serif" font-size="13" lengthAdjust="spacing" textLength="66" x="76" y="92.9404">getTopCard</text><polygon fill="#181818" points="80,125.4941,70,129.4941,80,133.4941,76,129.4941" style="stroke:#181818;stroke-width:1.0;"/><line style="stroke:#181818;stroke-width:1.0;" x1="74" x2="181" y1="129.4941" y2="129.4941"/><text fill="#000000" font-family="sans-serif" font-size="13" lengthAdjust="spacing" textLength="62" x="86" y="124.2314">return card</text><path d="M20,144.4941 L81,144.4941 L81,153.7852 L71,163.7852 L20,163.7852 L20,144.4941 " fill="#EEEEEE" style="stroke:#000000;stroke-width:1.5;"/><rect fill="none" height="148.4551" style="stroke:#000000;stroke-width:1.5;" width="307" x="20" y="144.4941"/><text fill="#000000" font-family="sans-serif" font-size="13" font-weight="bold" lengthAdjust="spacing" textLength="16" x="35" y="159.5225">alt</text><text fill="#000000" font-family="sans-serif" font-size="11" font-weight="bold" lengthAdjust="spacing" textLength="154" x="96" y="158.3643">[Note: Foundation condition]</text><polygon fill="#181818" points="260,183.0762,270,187.0762,260,191.0762,264,187.0762" style="stroke:#181818;stroke-width:1.0;"/><line style="stroke:#181818;stroke-width:1.0;" x1="69" x2="266" y1="187.0762" y2="187.0762"/><text fill="#000000" font-family="sans-serif" font-size="13" lengthAdjust="spacing" textLength="89" x="76" y="181.8135">putOnTop(card)</text><path d="M30,202.0762 L91,202.0762 L91,211.3672 L81,221.3672 L30,221.3672 L30,202.0762 " fill="#EEEEEE" style="stroke:#000000;stroke-width:1.5;"/><rect fill="none" height="50.582" style="stroke:#000000;stroke-width:1.5;" width="197" x="30" y="202.0762"/><text fill="#000000" font-family="sans-serif" font-size="13" font-weight="bold" lengthAdjust="spacing" textLength="16" x="45" y="217.1045">alt</text><text fill="#000000" font-family="sans-serif" font-size="11" font-weight="bold" lengthAdjust="spacing" textLength="98" x="106" y="215.9463">[!tableau.isEmpty]</text><polygon fill="#181818" points="170,240.6582,180,244.6582,170,248.6582,174,244.6582" style="stroke:#181818;stroke-width:1.0;"/><line style="stroke:#181818;stroke-width:1.0;" x1="69" x2="176" y1="244.6582" y2="244.6582"/><text fill="#000000" font-family="sans-serif" font-size="13" lengthAdjust="spacing" textLength="89" x="76" y="239.3955">displayTopCard</text><line style="stroke:#000000;stroke-width:1.0;stroke-dasharray:2.0,2.0;" x1="20" x2="327" y1="260.6582" y2="260.6582"/><polygon fill="#181818" points="170,280.9492,180,284.9492,170,288.9492,174,284.9492" style="stroke:#181818;stroke-width:1.0;"/><line style="stroke:#181818;stroke-width:1.0;" x1="69" x2="176" y1="284.9492" y2="284.9492"/><text fill="#000000" font-family="sans-serif" font-size="13" lengthAdjust="spacing" textLength="89" x="76" y="279.6865">putOnTop(card)</text><!--SRC=[VP1DRi8m48NtSug11O85GTrQ4Ab2T0bLnGMSn0MhgMtPumMthtyIJDkqiuZ6zZVllOdXbcGh3LU4S_RQyvkmS-GEJMh1V7i_ywONt2U0Sl-3UD5UTPoaLWbwlny1WFU4is6iakxmQUW662fxuReUHP7XHT1PcpstNKB6Xy0CD4Cho5k5RMGI50sEcWJ34WDRhJgP4k1GnQx42tB6qqa5psKKNDtfFrF_bYlfE-dYzUC6iOJAlUYTWF_c9xB4MOWV5JP4AozNWcrJJstAjfkcXhBS61iNwMTLbgiFtE7p_W2dDvXDWW-Nf4srT5u6srqMo8S53a95T8rFgnWIOqY0Bm00]--></g></svg>