<?xml version="1.0" encoding="us-ascii" standalone="no"?><svg xmlns="http://www.w3.org/2000/svg" xmlns:xlink="http://www.w3.org/1999/xlink" contentStyleType="text/css" height="289px" preserveAspectRatio="none" style="width:810px;height:289px;background:#FFFFFF;" version="1.1" viewBox="0 0 810 289" width="810px" zoomAndPan="magnify"><defs/><g><rect fill="none" height="179.7461" style="stroke:#000000;stroke-width:1.5;" width="311" x="10" y="55.6211"/><rect fill="none" height="83.873" style="stroke:#000000;stroke-width:1.5;" width="291" x="20" y="144.4941"/><line style="stroke:#181818;stroke-width:0.5;stroke-dasharray:5.0,5.0;" x1="59" x2="59" y1="38.6211" y2="252.3672"/><line style="stroke:#181818;stroke-width:0.5;stroke-dasharray:5.0,5.0;" x1="172" x2="172" y1="38.6211" y2="252.3672"/><line style="stroke:#181818;stroke-width:0.5;stroke-dasharray:5.0,5.0;" x1="256" x2="256" y1="38.6211" y2="252.3672"/><rect fill="#E2E2F0" height="32.6211" rx="2.5" ry="2.5" style="stroke:#181818;stroke-width:0.5;" width="58" x="30" y="5"/><text fill="#000000" font-family="sans-serif" font-size="14" lengthAdjust="spacing" textLength="44" x="37" y="27.1074">:Player</text><rect fill="#E2E2F0" height="32.6211" rx="2.5" ry="2.5" style="stroke:#181818;stroke-width:0.5;" width="58" x="30" y="251.3672"/><text fill="#000000" font-family="sans-serif" font-size="14" lengthAdjust="spacing" textLength="44" x="37" y="273.4746">:Player</text><rect fill="#E2E2F0" height="32.6211" rx="2.5" ry="2.5" style="stroke:#181818;stroke-width:0.5;" width="58" x="143" y="5"/><text fill="#000000" font-family="sans-serif" font-size="14" lengthAdjust="spacing" textLength="44" x="150" y="27.1074">:Waste</text><rect fill="#E2E2F0" height="32.6211" rx="2.5" ry="2.5" style="stroke:#181818;stroke-width:0.5;" width="58" x="143" y="251.3672"/><text fill="#000000" font-family="sans-serif" font-size="14" lengthAdjust="spacing" textLength="44" x="150" y="273.4746">:Waste</text><rect fill="#E2E2F0" height="32.6211" rx="2.5" ry="2.5" style="stroke:#181818;stroke-width:0.5;" width="90" x="211" y="5"/><text fill="#000000" font-family="sans-serif" font-size="14" lengthAdjust="spacing" textLength="76" x="218" y="27.1074">:Foundation</text><rect fill="#E2E2F0" height="32.6211" rx="2.5" ry="2.5" style="stroke:#181818;stroke-width:0.5;" width="90" x="211" y="251.3672"/><text fill="#000000" font-family="sans-serif" font-size="14" lengthAdjust="spacing" textLength="76" x="218" y="273.4746">:Foundation</text><path d="M10,55.6211 L71,55.6211 L71,64.9121 L61,74.9121 L10,74.9121 L10,55.6211 " fill="#EEEEEE" style="stroke:#000000;stroke-width:1.5;"/><rect fill="none" height="179.7461" style="stroke:#000000;stroke-width:1.5;" width="311" x="10" y="55.6211"/><text fill="#000000" font-family="sans-serif" font-size="13" font-weight="bold" lengthAdjust="spacing" textLength="16" x="25" y="70.6494">alt</text><text fill="#000000" font-family="sans-serif" font-size="11" font-weight="bold" lengthAdjust="spacing" textLength="92" x="86" y="69.4912">[!waste.isEmpty]</text><path d="M326,60.6211 L326,139.6211 L803,139.6211 L803,70.6211 L793,60.6211 L326,60.6211 " fill="#FEFFDD" style="stroke:#181818;stroke-width:0.5;"/><path d="M793,60.6211 L793,70.6211 L803,70.6211 L793,60.6211 " fill="#FEFFDD" style="stroke:#181818;stroke-width:0.5;"/><text fill="#000000" font-family="sans-serif" font-size="13" font-weight="bold" lengthAdjust="spacing" textLength="139" x="332" y="79.6494">Foundation condition:</text><text fill="#000000" font-family="sans-serif" font-size="13" lengthAdjust="spacing" textLength="225" x="332" y="96.9404">foundation.isEmpty &amp; card.rank = ACE</text><text fill="#000000" font-family="sans-serif" font-size="13" lengthAdjust="spacing" textLength="19" x="332" y="114.2314">OR</text><text fill="#000000" font-family="sans-serif" font-size="13" lengthAdjust="spacing" textLength="456" x="332" y="131.5225">!foundation.isEmpty &amp; foundation.top.(suite = card.suite &amp; rank = card.rank - 1)</text><polygon fill="#181818" points="160,94.2031,170,98.2031,160,102.2031,164,98.2031" style="stroke:#181818;stroke-width:1.0;"/><line style="stroke:#181818;stroke-width:1.0;" x1="59" x2="166" y1="98.2031" y2="98.2031"/><text fill="#000000" font-family="sans-serif" font-size="13" lengthAdjust="spacing" textLength="66" x="66" y="92.9404">getTopCard</text><polygon fill="#181818" points="70,125.4941,60,129.4941,70,133.4941,66,129.4941" style="stroke:#181818;stroke-width:1.0;"/><line style="stroke:#181818;stroke-width:1.0;" x1="64" x2="171" y1="129.4941" y2="129.4941"/><text fill="#000000" font-family="sans-serif" font-size="13" lengthAdjust="spacing" textLength="62" x="76" y="124.2314">return card</text><path d="M20,144.4941 L81,144.4941 L81,153.7852 L71,163.7852 L20,163.7852 L20,144.4941 " fill="#EEEEEE" style="stroke:#000000;stroke-width:1.5;"/><rect fill="none" height="83.873" style="stroke:#000000;stroke-width:1.5;" width="291" x="20" y="144.4941"/><text fill="#000000" font-family="sans-serif" font-size="13" font-weight="bold" lengthAdjust="spacing" textLength="16" x="35" y="159.5225">alt</text><text fill="#000000" font-family="sans-serif" font-size="11" font-weight="bold" lengthAdjust="spacing" textLength="154" x="96" y="158.3643">[Note: Foundation condition]</text><polygon fill="#181818" points="244,183.0762,254,187.0762,244,191.0762,248,187.0762" style="stroke:#181818;stroke-width:1.0;"/><line style="stroke:#181818;stroke-width:1.0;" x1="59" x2="250" y1="187.0762" y2="187.0762"/><text fill="#000000" font-family="sans-serif" font-size="13" lengthAdjust="spacing" textLength="89" x="66" y="181.8135">putOnTop(card)</text><line style="stroke:#000000;stroke-width:1.0;stroke-dasharray:2.0,2.0;" x1="20" x2="311" y1="196.0762" y2="196.0762"/><polygon fill="#181818" points="160,216.3672,170,220.3672,160,224.3672,164,220.3672" style="stroke:#181818;stroke-width:1.0;"/><line style="stroke:#181818;stroke-width:1.0;" x1="59" x2="166" y1="220.3672" y2="220.3672"/><text fill="#000000" font-family="sans-serif" font-size="13" lengthAdjust="spacing" textLength="89" x="66" y="215.1045">putOnTop(card)</text><!--SRC=[RP3DRi8m48Jl-nG31mG7WdgD85A5w16ggbBF9d71QcfRzaOLRr__XBgjueFbzSxEVBOLZbMhhD2CUVtSYvjqSmWFcuva__JVX6UPsb_nzA_xP0RT2LP69ydxJqb4ecVCqb2b_E7JyeqGLax1kic6g76H_6hiNhWk2V9rw8_A6axou3JQg4YIQ7qqB6iK0BH6TofbOrmbge05EplmIOV4PJHS9RNilPmOknDEJUZ04ZSTEE3KvSgqFJTJFFLsSswe8Do_0ulqfCe9_O4T7lS7EhtGR5BuwvADhPP-K25sbmroiS1eL4pNU5X5I4H8ecy0]--></g></svg>