<?xml version="1.0" encoding="us-ascii" standalone="no"?><svg xmlns="http://www.w3.org/2000/svg" xmlns:xlink="http://www.w3.org/1999/xlink" contentStyleType="text/css" height="804px" preserveAspectRatio="none" style="width:634px;height:804px;background:#FFFFFF;" version="1.1" viewBox="0 0 634 804" width="634px" zoomAndPan="magnify"><defs/><g><g id="e0"><rect fill="#F1F1F1" height="50" rx="12.5" ry="12.5" style="stroke:#181818;stroke-width:0.5;" width="50" x="161.58" y="129"/><line style="stroke:#181818;stroke-width:0.5;" x1="161.58" x2="211.58" y1="157.6211" y2="157.6211"/><text fill="#000000" font-family="sans-serif" font-size="14" lengthAdjust="spacing" textLength="4" x="184.58" y="149.1074">&#160;</text></g><g id="e1"><rect fill="#F1F1F1" height="50" rx="12.5" ry="12.5" style="stroke:#181818;stroke-width:0.5;" width="50" x="161.58" y="258"/><line style="stroke:#181818;stroke-width:0.5;" x1="161.58" x2="211.58" y1="286.6211" y2="286.6211"/><text fill="#000000" font-family="sans-serif" font-size="14" lengthAdjust="spacing" textLength="4" x="184.58" y="278.1074">&#160;</text></g><g id="e2"><rect fill="#F1F1F1" height="50" rx="12.5" ry="12.5" style="stroke:#181818;stroke-width:0.5;" width="50" x="161.58" y="387"/><line style="stroke:#181818;stroke-width:0.5;" x1="161.58" x2="211.58" y1="415.6211" y2="415.6211"/><text fill="#000000" font-family="sans-serif" font-size="14" lengthAdjust="spacing" textLength="4" x="184.58" y="407.1074">&#160;</text></g><g id="e3"><rect fill="#F1F1F1" height="50" rx="12.5" ry="12.5" style="stroke:#181818;stroke-width:0.5;" width="50" x="161.58" y="516"/><line style="stroke:#181818;stroke-width:0.5;" x1="161.58" x2="211.58" y1="544.6211" y2="544.6211"/><text fill="#000000" font-family="sans-serif" font-size="14" lengthAdjust="spacing" textLength="4" x="184.58" y="536.1074">&#160;</text></g><g id="elem_c1"><polygon fill="#F1F1F1" points="217.58,645,229.58,657,217.58,669,205.58,657,217.58,645" style="stroke:#181818;stroke-width:0.5;"/></g><g id="e4"><rect fill="#F1F1F1" height="50" rx="12.5" ry="12.5" style="stroke:#181818;stroke-width:0.5;" width="50" x="375.58" y="748"/><line style="stroke:#181818;stroke-width:0.5;" x1="375.58" x2="425.58" y1="776.6211" y2="776.6211"/><text fill="#000000" font-family="sans-serif" font-size="14" lengthAdjust="spacing" textLength="4" x="398.58" y="768.1074">&#160;</text></g><ellipse cx="186.58" cy="37" fill="#222222" rx="10" ry="10" style="stroke:#222222;stroke-width:1.0;"/><ellipse cx="34.58" cy="773" fill="none" rx="11" ry="11" style="stroke:#222222;stroke-width:1.0;"/><ellipse cx="34.58" cy="773" fill="#222222" rx="6" ry="6" style="stroke:#222222;stroke-width:1.0;"/><g id="elem_ruleNote"><path d="M231.58,6 L231.58,67.873 L627.58,67.873 L627.58,16 L617.58,6 L231.58,6 " fill="#FEFFDD" style="stroke:#181818;stroke-width:0.5;"/><path d="M617.58,6 L617.58,16 L627.58,16 L617.58,6 " fill="#FEFFDD" style="stroke:#181818;stroke-width:1.0;"/><text fill="#000000" font-family="sans-serif" font-size="13" lengthAdjust="spacing" textLength="88" x="237.58" y="25.0283">valid square ::=</text><text fill="#000000" font-family="sans-serif" font-size="13" lengthAdjust="spacing" textLength="115" x="237.58" y="42.3193">square is empty &amp;&amp;</text><text fill="#000000" font-family="sans-serif" font-size="13" lengthAdjust="spacing" textLength="375" x="237.58" y="59.6104">(square row = 1 {bottom row} || square in row-1 has token placed)</text></g><!--link *start* to e0--><g id="link_*start*_e0"><path d="M186.58,47.02 C186.58,64.5 186.58,97.47 186.58,122.97 " fill="none" id="*start*-to-e0" style="stroke:#181818;stroke-width:1.0;"/><polygon fill="#181818" points="186.58,128.97,190.58,119.97,186.58,123.97,182.58,119.97,186.58,128.97" style="stroke:#181818;stroke-width:1.0;"/></g><!--link e0 to e1--><g id="link_e0_e1"><path d="M161.4,157.88 C131.96,162.75 84.45,175.61 62.58,209 C36.49,248.81 111.993,268.683 155.353,276.823 " fill="none" id="e0-to-e1" style="stroke:#181818;stroke-width:1.0;"/><polygon fill="#181818" points="161.25,277.93,153.1426,272.3381,156.3358,277.0075,151.6665,280.2008,161.25,277.93" style="stroke:#181818;stroke-width:1.0;"/><text fill="#000000" font-family="sans-serif" font-size="13" lengthAdjust="spacing" textLength="201" x="63.58" y="224.0283">place token playerA in valid square</text></g><!--link e1 to e0--><g id="link_e1_e0"><path d="M211.83,273.26 C241.68,261.39 285.45,238.27 269.58,209 C257.44,186.64 237.1272,174.4146 217.4772,166.1146 " fill="none" id="e1-to-e0" style="stroke:#181818;stroke-width:1.0;"/><polygon fill="#181818" points="211.95,163.78,218.6843,170.9667,216.556,165.7255,221.7972,163.5972,211.95,163.78" style="stroke:#181818;stroke-width:1.0;"/><text fill="#000000" font-family="sans-serif" font-size="13" lengthAdjust="spacing" textLength="201" x="273.58" y="224.0283">place token playerB in valid square</text></g><!--link e1 to e2--><g id="link_e1_e2"><path d="M186.58,308.19 C186.58,330.78 186.58,358.33 186.58,380.9 " fill="none" id="e1-to-e2" style="stroke:#181818;stroke-width:1.0;"/><polygon fill="#181818" points="186.58,386.9,190.58,377.9,186.58,381.9,182.58,377.9,186.58,386.9" style="stroke:#181818;stroke-width:1.0;"/><text fill="#000000" font-family="sans-serif" font-size="13" lengthAdjust="spacing" textLength="147" x="187.58" y="353.0283">[board contains 7 tokens]</text></g><!--link e2 to *end*--><g id="link_e2_*end*"><path d="M165.34,437.18 C125.94,483.84 42.77,591.27 12.58,699 C6,722.45 17.0503,744.8181 25.5803,758.4081 " fill="none" id="e2-to-*end*" style="stroke:#181818;stroke-width:1.0;"/><polygon fill="#181818" points="28.77,763.49,27.3733,753.7407,26.1119,759.2551,20.5975,757.9937,28.77,763.49" style="stroke:#181818;stroke-width:1.0;"/><text fill="#000000" font-family="sans-serif" font-size="13" lengthAdjust="spacing" textLength="82" x="55.58" y="611.0283">[playerA wins]</text></g><!--link e2 to e3--><g id="link_e2_e3"><path d="M186.58,437.19 C186.58,459.78 186.58,487.33 186.58,509.9 " fill="none" id="e2-to-e3" style="stroke:#181818;stroke-width:1.0;"/><polygon fill="#181818" points="186.58,515.9,190.58,506.9,186.58,510.9,182.58,506.9,186.58,515.9" style="stroke:#181818;stroke-width:1.0;"/><text fill="#000000" font-family="sans-serif" font-size="13" lengthAdjust="spacing" textLength="32" x="187.58" y="482.0283">[else]</text></g><!--link e3 to c1--><g id="link_e3_c1"><path d="M181.1,566.04 C178.86,580.62 177.94,599.37 183.58,615 C189.1,630.31 198.5425,640.0475 206.7525,647.0775 " fill="none" id="e3-to-c1" style="stroke:#181818;stroke-width:1.0;"/><polygon fill="#181818" points="211.31,650.98,207.0754,642.088,207.5121,647.7279,201.8721,648.1646,211.31,650.98" style="stroke:#181818;stroke-width:1.0;"/><text fill="#000000" font-family="sans-serif" font-size="13" lengthAdjust="spacing" textLength="201" x="184.58" y="611.0283">place token playerB in valid square</text></g><!--link c1 to *end*--><g id="link_c1_*end*"><path d="M219.22,667.78 C220.82,680.81 221.52,703.88 209.58,718 C166.66,768.74 83.1798,772.6735 51.7698,772.3935 " fill="none" id="c1-to-*end*" style="stroke:#181818;stroke-width:1.0;"/><polygon fill="#181818" points="45.77,772.34,54.734,776.4201,50.7698,772.3846,54.8053,768.4204,45.77,772.34" style="stroke:#181818;stroke-width:1.0;"/><text fill="#000000" font-family="sans-serif" font-size="13" lengthAdjust="spacing" textLength="82" x="218.58" y="714.0283">[playerB wins]</text></g><!--link c1 to *end*--><g id="link_c1_*end*"><path d="M206.79,658.61 C169.99,660.95 50.47,670.64 27.58,699 C12.7,717.43 20.6744,742.14 27.4944,757.27 " fill="none" id="c1-to-*end*-1" style="stroke:#181818;stroke-width:1.0;"/><polygon fill="#181818" points="29.96,762.74,29.9082,752.8913,27.9053,758.1817,22.6149,756.1788,29.96,762.74" style="stroke:#181818;stroke-width:1.0;"/><text fill="#000000" font-family="sans-serif" font-size="13" lengthAdjust="spacing" textLength="172" x="28.58" y="714.0283">[board is full &amp; ! playerB wins]</text></g><!--link c1 to e4--><g id="link_c1_e4"><path d="M225.8,660.85 C242.32,666.75 280.46,681.25 309.58,699 C333.27,713.45 353.1452,729.3882 370.7052,744.7582 " fill="none" id="c1-to-e4" style="stroke:#181818;stroke-width:1.0;"/><polygon fill="#181818" points="375.22,748.71,371.0823,739.7725,371.4576,745.4169,365.8133,745.7922,375.22,748.71" style="stroke:#181818;stroke-width:1.0;"/><text fill="#000000" font-family="sans-serif" font-size="13" lengthAdjust="spacing" textLength="32" x="336.58" y="714.0283">[else]</text></g><!--link e4 to e2--><g id="link_e4_e2"><path d="M404.77,747.8 C409.69,712.49 414.45,645.65 390.58,596 C351.2,514.1 262.2242,455.526 216.9442,429.546 " fill="none" id="e4-to-e2" style="stroke:#181818;stroke-width:1.0;"/><polygon fill="#181818" points="211.74,426.56,217.5557,434.5085,216.0768,429.0483,221.537,427.5695,211.74,426.56" style="stroke:#181818;stroke-width:1.0;"/><text fill="#000000" font-family="sans-serif" font-size="13" lengthAdjust="spacing" textLength="201" x="398.58" y="611.0283">place token playerA in valid square</text></g><!--SRC=[ZL7BQiCm4BphAwOzcBPWi6n3mII6vWFw0o47HTuI4yLABRaXDFtthXznKoU7eClExkpCQjTvvGcF_9G3HSBzmtA2umbE1gmbPZEziQMcF9zmKY74ycM5CCnR0uhwI2B3tYXDy7PBLHiVgNv3MU5BcRA0-snKJOA97Jzc_d9jLLr0syghid9uxNlTQcH5DrKNrwfnns_dOjcpzw7ijFeQ9Ms9Z2DE9LrAoplbjRoMNmpoVxNnGwN3HsCC0ZpW9fdIYrdISH_tx4zKbe_1XwWRG-ySYyioicmkXf2deDtU7n44ucd8rVQ0EII-rzPxksln3qwdSpURSIQKsB31E8UcubbGLQ2rvkkBNm00]--></g></svg>